<svg width="28" height="28" viewBox="0 0 28 28" fill="none" xmlns="http://www.w3.org/2000/svg">
<path d="M13.9999 25.6667C12.4055 25.6667 10.8985 25.3603 9.47909 24.7474C8.05964 24.1353 6.82025 23.2992 5.76092 22.239C4.70081 21.1797 3.8647 19.9403 3.25259 18.5209C2.6397 17.1014 2.33325 15.5945 2.33325 14C2.33325 12.3862 2.6397 10.8745 3.25259 9.46521C3.8647 8.0551 4.70081 6.82037 5.76092 5.76104C6.82025 4.70093 8.05964 3.86443 9.47909 3.25154C10.8985 2.63943 12.4055 2.33337 13.9999 2.33337C15.6138 2.33337 17.1254 2.63943 18.5348 3.25154C19.9449 3.86443 21.1796 4.70093 22.2389 5.76104C23.299 6.82037 24.1351 8.0551 24.7473 9.46521C25.3601 10.8745 25.6666 12.3862 25.6666 14C25.6666 15.5945 25.3601 17.1014 24.7473 18.5209C24.1351 19.9403 23.299 21.1797 22.2389 22.239C21.1796 23.2992 19.9449 24.1353 18.5348 24.7474C17.1254 25.3603 15.6138 25.6667 13.9999 25.6667ZM13.9999 23.275C14.5055 22.575 14.943 21.8459 15.3124 21.0875C15.6819 20.3292 15.9833 19.5223 16.2166 18.6667H11.7833C12.0166 19.5223 12.318 20.3292 12.6874 21.0875C13.0569 21.8459 13.4944 22.575 13.9999 23.275ZM10.9666 22.8084C10.6166 22.1667 10.3105 21.5005 10.0484 20.8099C9.78553 20.12 9.56659 19.4056 9.39159 18.6667H5.94992C6.51381 19.6389 7.21847 20.4848 8.06392 21.2042C8.91014 21.9237 9.8777 22.4584 10.9666 22.8084ZM17.0333 22.8084C18.1221 22.4584 19.0893 21.9237 19.9348 21.2042C20.781 20.4848 21.486 19.6389 22.0499 18.6667H18.6083C18.4333 19.4056 18.2147 20.12 17.9526 20.8099C17.6897 21.5005 17.3833 22.1667 17.0333 22.8084ZM4.95825 16.3334H8.92492C8.86659 15.9445 8.82264 15.5603 8.79309 15.1807C8.76431 14.8019 8.74992 14.4084 8.74992 14C8.74992 13.5917 8.76431 13.1982 8.79309 12.8194C8.82264 12.4398 8.86659 12.0556 8.92492 11.6667H4.95825C4.86103 12.0556 4.78792 12.4398 4.73892 12.8194C4.6907 13.1982 4.66659 13.5917 4.66659 14C4.66659 14.4084 4.6907 14.8019 4.73892 15.1807C4.78792 15.5603 4.86103 15.9445 4.95825 16.3334ZM11.2583 16.3334H16.7416C16.7999 15.9445 16.8439 15.5603 16.8734 15.1807C16.9022 14.8019 16.9166 14.4084 16.9166 14C16.9166 13.5917 16.9022 13.1982 16.8734 12.8194C16.8439 12.4398 16.7999 12.0556 16.7416 11.6667H11.2583C11.1999 12.0556 11.1564 12.4398 11.1276 12.8194C11.098 13.1982 11.0833 13.5917 11.0833 14C11.0833 14.4084 11.098 14.8019 11.1276 15.1807C11.1564 15.5603 11.1999 15.9445 11.2583 16.3334ZM19.0749 16.3334H23.0416C23.1388 15.9445 23.2119 15.5603 23.2609 15.1807C23.3091 14.8019 23.3333 14.4084 23.3333 14C23.3333 13.5917 23.3091 13.1982 23.2609 12.8194C23.2119 12.4398 23.1388 12.0556 23.0416 11.6667H19.0749C19.1333 12.0556 19.1768 12.4398 19.2056 12.8194C19.2351 13.1982 19.2499 13.5917 19.2499 14C19.2499 14.4084 19.2351 14.8019 19.2056 15.1807C19.1768 15.5603 19.1333 15.9445 19.0749 16.3334ZM18.6083 9.33337H22.0499C21.486 8.36115 20.781 7.51532 19.9348 6.79587C19.0893 6.07643 18.1221 5.54171 17.0333 5.19171C17.3833 5.83337 17.6897 6.49915 17.9526 7.18904C18.2147 7.87971 18.4333 8.59449 18.6083 9.33337ZM11.7833 9.33337H16.2166C15.9833 8.47782 15.6819 7.67087 15.3124 6.91254C14.943 6.15421 14.5055 5.42504 13.9999 4.72504C13.4944 5.42504 13.0569 6.15421 12.6874 6.91254C12.318 7.67087 12.0166 8.47782 11.7833 9.33337ZM5.94992 9.33337H9.39159C9.56659 8.59449 9.78553 7.87971 10.0484 7.18904C10.3105 6.49915 10.6166 5.83337 10.9666 5.19171C9.8777 5.54171 8.91014 6.07643 8.06392 6.79587C7.21847 7.51532 6.51381 8.36115 5.94992 9.33337Z" fill="white"/>
</svg>
