<svg width="14" height="14" viewBox="0 0 14 14" fill="none" xmlns="http://www.w3.org/2000/svg">
<path d="M3.22941 12.7667C3.32378 12.8158 3.42973 12.8383 3.53589 12.8317C3.64205 12.8251 3.74441 12.7897 3.832 12.7294L11.4153 7.47938C11.4928 7.4257 11.5561 7.35403 11.5999 7.27053C11.6436 7.18702 11.6665 7.09415 11.6665 6.99988C11.6665 6.90562 11.6436 6.81275 11.5999 6.72924C11.5561 6.64573 11.4928 6.57407 11.4153 6.52038L3.832 1.27038C3.74448 1.20983 3.64207 1.17437 3.53585 1.16785C3.42963 1.16132 3.32364 1.18398 3.22937 1.23337C3.1351 1.28275 3.05614 1.35699 3.00104 1.44803C2.94593 1.53908 2.91678 1.64346 2.91675 1.74988V12.2499C2.91673 12.3564 2.94586 12.4608 3.00097 12.5519C3.05609 12.643 3.13509 12.7173 3.22941 12.7667Z" fill="white"/>
</svg>
