<svg width="18" height="15" viewBox="0 0 18 15" fill="none" xmlns="http://www.w3.org/2000/svg">
<path d="M17.8335 0.49947C17.0935 1.02143 16.2742 1.42064 15.4071 1.68174C14.9418 1.14664 14.3233 0.767368 13.6353 0.595231C12.9473 0.423093 12.2231 0.466393 11.5606 0.719274C10.898 0.972155 10.3291 1.42242 9.9308 2.00916C9.53249 2.5959 9.32399 3.29082 9.3335 3.99992V4.77265C7.97553 4.80786 6.62994 4.50669 5.41655 3.89595C4.20316 3.28521 3.15965 2.38387 2.37895 1.2722C2.37895 1.2722 -0.711958 8.22674 6.24259 11.3177C4.65118 12.3979 2.75539 12.9396 0.833496 12.8631C7.78804 16.7267 16.288 12.8631 16.288 3.97674C16.2873 3.7615 16.2666 3.54679 16.2262 3.33538C17.0149 2.55762 17.5714 1.57566 17.8335 0.49947Z" fill="white"/>
</svg>
